<svg width="172" height="107" viewBox="0 0 172 107" fill="none" xmlns="http://www.w3.org/2000/svg">
<path d="M93.5353 0C94.7337 0.162559 99.1175 0.0782728 100.504 0.0788733L114.978 0.0790749L150.601 0.0798753C157.477 0.0804759 164.764 -0.0446433 171.597 0.182979C169.335 3.31383 166.74 8.04105 164.726 11.476L153.841 30.0361C144.099 46.6259 133.709 63.5816 124.251 80.2311C114.309 80.2863 104.367 80.2821 94.4245 80.2187C92.2702 76.648 90.1664 73.0473 88.1138 69.4173C89.5007 66.5089 92.0705 62.5827 93.7981 59.705C96.8423 54.6229 99.8412 49.5135 102.794 44.3779C104.983 47.5246 107.349 51.6934 109.329 55.0513C114.588 46.6029 119.758 37.1775 124.942 28.5414C125.559 27.3901 126.111 26.468 126.807 25.3621C125.219 25.5281 122.064 25.4212 120.382 25.413L108.693 25.3864C107.321 27.1435 104.907 31.5414 103.671 33.6588L94.4808 49.409L85.1859 65.0885C77.2688 79.0173 69.2142 92.8676 61.023 106.637L31.5098 106.655C32.7294 103.846 35.3657 99.61 36.9755 96.8623L46.3248 80.9145C58.9672 59.7083 71.4265 38.3935 83.7013 16.9724C86.455 12.0552 91.205 4.73982 93.5353 0Z" fill="#F59700"/>
<path d="M47.1616 0.141709C50.6987 -0.0430714 55.0731 0.0626283 58.667 0.0644301C64.8533 0.0494154 71.0395 0.070435 77.2255 0.12729C78.5807 2.89899 81.0571 6.4915 82.6392 9.50544C81.6018 11.9781 78.6275 16.7645 77.1609 19.2522C74.1159 24.4983 71.0041 29.7053 67.8264 34.872C66.3053 32.0827 63.8969 28.121 62.1548 25.4664C59.3181 30.0567 56.3942 35.3428 53.6315 40.0384L35.0744 71.3944C33.3409 74.408 31.569 77.3989 29.7586 80.3668C26.449 80.0559 19.1817 80.2328 15.6659 80.2519C11.3667 80.2751 4.07838 80.0329 0 80.403L34.0378 22.6685L42.9367 7.56235C44.1255 5.53156 46.2577 2.11023 47.1616 0.141709Z" fill="#F59700"/>
</svg>
